<?xml version="1.0" encoding="utf-8"?>
<!-- Generator: Adobe Illustrator 15.1.0, SVG Export Plug-In . SVG Version: 6.00 Build 0)  -->
<!DOCTYPE svg PUBLIC "-//W3C//DTD SVG 1.1//EN" "http://www.w3.org/Graphics/SVG/1.1/DTD/svg11.dtd">
<svg version="1.1" id="Layer_1" xmlns="http://www.w3.org/2000/svg" xmlns:xlink="http://www.w3.org/1999/xlink" x="0px" y="0px"
	 width="520.319px" height="70.072px" viewBox="0 0 520.319 70.072" enable-background="new 0 0 520.319 70.072"
	 xml:space="preserve">
<path fill="#EA272B" d="M311.505,61.211c-5.149-1.198-6.728-4.314-6.664-14.639V21.24v-8.281V2.926l-8.293-0.003l0.004,43.63
	c0,12.662,2.165,21.492,14.953,22.928C311.56,66.876,311.391,63.223,311.505,61.211z"/>
<path fill="#EA272B" d="M44.009,22.257v26.205c0,11.931-9.674,21.61-21.617,21.61c-11.937,0-21.61-9.68-21.61-21.61V22.257h7.814
	v26.216c0,7.63,6.18,13.806,13.796,13.806c7.628,0,13.808-6.176,13.808-13.806V22.257H44.009z"/>
<path fill="#EA272B" d="M52.542,46.088c0.033,13.236,10.801,23.986,24.043,23.984c13.262,0,24.05-10.785,24.05-24.047
	c0-13.26-10.788-24.051-24.05-24.051c-6.277,0-11.984,2.438-16.277,6.4v-1.168c0-8.982-0.203-14.736-0.072-24.039h-7.697
	c0,8.309,0,10.779,0,24.039v18.881H52.542z M76.585,29.752c8.975,0,16.277,7.299,16.277,16.27c0,8.975-7.303,16.279-16.277,16.279
	c-8.977,0-16.273-7.301-16.277-16.279C60.308,37.053,67.609,29.752,76.585,29.752z"/>
<path fill="#EA272B" d="M159.147,70.072V44.283c0-11.748,9.525-21.283,21.264-21.283c11.773,0,7.517,7.676,0,7.676
	c-7.485,0-13.589,6.088-13.589,13.588v25.809H159.147z"/>
<path fill="#EA272B" d="M406.989,45.52c-6.091-4.422-17.897-3.084-24.087-4.826c-2.942-0.93-4.393-2.537-4.258-4.484
	c0.282-4.232,5.233-6.926,12.54-6.602c7.09,0.318,11.983,2.783,12.619,9.037c5.097,0,6.273,0.139,8.311-0.082
	c0-9.135-7.15-16.846-21.529-16.846c-12.199,0-19.998,5.889-19.998,13.855c0,3.619,0.945,7.102,4.32,9.635
	c4.563,3.07,7.933,3.213,21.558,4.527c3.944,0.998,7.476,2.393,7.339,6.268c-1.243,4.594-6.474,5.922-13.788,5.979
	c-6.479,0.053-11.929-4.012-12.615-10.504c-7.804-0.111-2.274-0.09-8.636-0.057c0,8.91,8.824,18.396,21.255,18.646
	c12.199,0.24,22.095-6.451,22.095-14.418C412.114,52.023,410.372,48.057,406.989,45.52z"/>
<path fill="#EA272B" d="M154.47,45.899c0-13.333-10.847-24.183-24.179-24.183c-13.333,0-24.18,10.85-24.18,24.183
	c0,13.329,10.847,24.173,24.18,24.173c6.195,0,11.854-2.342,16.141-6.188l-5.33-5.713c-2.876,2.551-6.67,4.1-10.811,4.1
	c-7.69,0-14.157-5.355-15.891-12.523h39.725C154.322,48.504,154.47,47.193,154.47,45.899z M114.427,41.928
	c1.774-7.11,8.206-12.389,15.864-12.389c7.639,0,14.066,5.301,15.854,12.389H114.427z"/>
<path fill="#EA272B" d="M265.681,60.177c-8.974,0-16.27-7.299-16.27-16.268c0-8.975,7.296-16.273,16.275-16.273
	c8.974,0,16.271,7.299,16.271,16.273C281.958,52.878,274.661,60.177,265.681,60.177z M289.725,43.845
	c-0.032-13.236-10.803-23.984-24.038-23.98c-13.262,0-24.049,10.779-24.049,24.041c0,13.258,10.787,24.045,24.049,24.045
	c6.272,0,11.981-2.434,16.271-6.398c0,0,2.236,3.664,4.251,6.561c0.247,0.355,0.494,0.697,0.729,1.023
	c1.222,1.672,2.787,0.807,2.787-0.277c0-1.502,0-3.189,0-5.109c0-0.334,0-0.674,0-1.027l0.005-18.877H289.725z"/>
<path fill="#EA272B" d="M363.629,45.899c0-13.333-10.847-24.183-24.179-24.183c-13.333,0-24.18,10.85-24.18,24.183
	c0,13.329,10.847,24.173,24.18,24.173c6.195,0,11.854-2.342,16.141-6.188l-5.33-5.713c-2.876,2.551-6.67,4.1-10.811,4.1
	c-7.69,0-14.157-5.355-15.891-12.523h39.725C363.481,48.504,363.629,47.193,363.629,45.899z M323.586,41.928
	c1.774-7.11,8.206-12.389,15.864-12.389c7.639,0,14.066,5.301,15.854,12.389H323.586z"/>
<g>
	<g>
		<path fill="#EA272B" d="M496.506,70.072c-13.146,0-23.836-10.686-23.836-23.824c0-13.142,10.689-23.825,23.836-23.825
			c13.131,0,23.812,10.684,23.812,23.825C520.319,59.387,509.637,70.072,496.506,70.072z M496.506,30.128
			c-8.902,0-16.129,7.231-16.129,16.132c0,8.875,7.227,16.115,16.129,16.115c8.889,0,16.117-7.24,16.117-16.115
			C512.624,37.359,505.395,30.128,496.506,30.128z"/>
	</g>
	<g>
		<path fill="#EA272B" d="M466.991,62.385c-4.783-1.117-6.256-4.016-6.197-13.611V35.359h-3.438h-4.27v13.393
			c0,11.775,2.012,19.986,13.904,21.32C467.045,67.652,466.887,64.252,466.991,62.385z"/>
		<path fill="#EA272B" d="M461.28,22.067c0,2.262-1.828,4.098-4.096,4.098c-2.264,0-4.098-1.836-4.098-4.098
			c0-2.264,1.834-4.096,4.098-4.096C459.452,17.972,461.28,19.804,461.28,22.067z"/>
	</g>
	<path fill="#EA272B" d="M442.858,50.494c0,4.836-3.922,8.764-8.768,8.764c-4.847,0-8.774-3.928-8.774-8.764
		c0-4.844,3.928-8.771,8.774-8.771C438.936,41.723,442.858,45.65,442.858,50.494z"/>
</g>
<path fill="#EA272B" d="M232.458,45.52c-6.091-4.422-17.897-3.084-24.087-4.826c-2.942-0.93-4.393-2.537-4.258-4.484
	c0.282-4.232,5.233-6.926,12.54-6.602c7.09,0.318,11.983,2.783,12.619,9.037c5.097,0,6.273,0.139,8.311-0.082
	c0-9.135-7.15-16.846-21.529-16.846c-12.199,0-19.998,5.889-19.998,13.855c0,3.619,0.945,7.102,4.32,9.635
	c4.563,3.07,7.933,3.213,21.558,4.527c3.944,0.998,7.476,2.393,7.339,6.268c-1.243,4.594-6.474,5.922-13.788,5.979
	c-6.479,0.053-11.929-4.012-12.615-10.504c-7.804-0.111-2.274-0.09-8.636-0.057c0,8.91,8.824,18.396,21.255,18.646
	c12.199,0.24,22.095-6.451,22.095-14.418C237.583,52.023,235.84,48.057,232.458,45.52z"/>
</svg>
