<?xml version="1.0" encoding="utf-8"?>
<!-- Generator: Adobe Illustrator 15.1.0, SVG Export Plug-In . SVG Version: 6.00 Build 0)  -->
<!DOCTYPE svg PUBLIC "-//W3C//DTD SVG 1.1//EN" "http://www.w3.org/Graphics/SVG/1.1/DTD/svg11.dtd">
<svg version="1.1" id="Layer_1" xmlns="http://www.w3.org/2000/svg" xmlns:xlink="http://www.w3.org/1999/xlink" x="0px" y="0px"
	 width="608.017px" height="70.072px" viewBox="0 0 608.017 70.072" enable-background="new 0 0 608.017 70.072"
	 xml:space="preserve">
<path fill="#EA272B" d="M399.203,61.211c-5.149-1.198-6.728-4.314-6.664-14.639V21.24v-8.281V2.926l-8.293-0.003l0.004,43.63
	c0,12.662,2.165,21.492,14.953,22.928C399.258,66.876,399.089,63.223,399.203,61.211z"/>
<path fill="#EA272B" d="M131.707,22.257v26.205c0,11.931-9.674,21.61-21.617,21.61c-11.937,0-21.61-9.68-21.61-21.61V22.257h7.814
	v26.216c0,7.63,6.181,13.806,13.796,13.806c7.628,0,13.809-6.176,13.809-13.806V22.257H131.707z"/>
<path fill="#EA272B" d="M140.24,46.088c0.033,13.236,10.801,23.986,24.043,23.984c13.262,0,24.05-10.785,24.05-24.047
	c0-13.26-10.788-24.051-24.05-24.051c-6.277,0-11.984,2.438-16.277,6.4v-1.168c0-8.982-0.203-14.736-0.072-24.039h-7.697
	c0,8.309,0,10.779,0,24.039v18.881H140.24z M164.283,29.752c8.975,0,16.277,7.299,16.277,16.27c0,8.975-7.303,16.279-16.277,16.279
	c-8.977,0-16.273-7.301-16.277-16.279C148.006,37.053,155.307,29.752,164.283,29.752z"/>
<path fill="#EA272B" d="M246.845,70.072V44.283c0-11.748,9.525-21.283,21.264-21.283c11.773,0,7.517,7.676,0,7.676
	c-7.485,0-13.589,6.088-13.589,13.588v25.809H246.845z"/>
<path fill="#EA272B" d="M494.687,45.52c-6.091-4.422-17.897-3.084-24.087-4.826c-2.942-0.93-4.393-2.537-4.258-4.484
	c0.282-4.232,5.233-6.926,12.54-6.602c7.09,0.318,11.983,2.783,12.619,9.037c5.097,0,6.273,0.139,8.311-0.082
	c0-9.135-7.15-16.846-21.529-16.846c-12.199,0-19.998,5.889-19.998,13.855c0,3.619,0.945,7.102,4.32,9.635
	c4.563,3.07,7.933,3.213,21.558,4.527c3.944,0.998,7.476,2.393,7.339,6.268c-1.243,4.594-6.474,5.922-13.788,5.979
	c-6.479,0.053-11.929-4.012-12.615-10.504c-7.804-0.111-2.274-0.09-8.636-0.057c0,8.91,8.824,18.396,21.255,18.646
	c12.199,0.24,22.095-6.451,22.095-14.418C499.812,52.023,498.069,48.057,494.687,45.52z"/>
<path fill="#EA272B" d="M242.168,45.899c0-13.333-10.847-24.183-24.179-24.183c-13.333,0-24.18,10.85-24.18,24.183
	c0,13.329,10.847,24.173,24.18,24.173c6.195,0,11.854-2.342,16.141-6.188l-5.33-5.713c-2.876,2.551-6.67,4.1-10.811,4.1
	c-7.69,0-14.157-5.355-15.891-12.523h39.725C242.02,48.504,242.168,47.193,242.168,45.899z M202.125,41.928
	c1.774-7.11,8.206-12.389,15.864-12.389c7.639,0,14.066,5.301,15.854,12.389H202.125z"/>
<path fill="#EA272B" d="M353.379,60.177c-8.974,0-16.27-7.299-16.27-16.268c0-8.975,7.296-16.273,16.275-16.273
	c8.974,0,16.271,7.299,16.271,16.273C369.655,52.878,362.358,60.177,353.379,60.177z M377.423,43.845
	c-0.032-13.236-10.803-23.984-24.038-23.98c-13.262,0-24.049,10.779-24.049,24.041c0,13.258,10.787,24.045,24.049,24.045
	c6.272,0,11.981-2.434,16.271-6.398c0,0,2.236,3.664,4.251,6.561c0.247,0.355,0.494,0.697,0.729,1.023
	c1.222,1.672,2.787,0.807,2.787-0.277c0-1.502,0-3.189,0-5.109c0-0.334,0-0.674,0-1.027l0.005-18.877H377.423z"/>
<path fill="#EA272B" d="M451.327,45.899c0-13.333-10.847-24.183-24.179-24.183c-13.333,0-24.18,10.85-24.18,24.183
	c0,13.329,10.847,24.173,24.18,24.173c6.195,0,11.854-2.342,16.141-6.188l-5.33-5.713c-2.876,2.551-6.67,4.1-10.811,4.1
	c-7.69,0-14.157-5.355-15.891-12.523h39.725C451.179,48.504,451.327,47.193,451.327,45.899z M411.284,41.928
	c1.774-7.11,8.206-12.389,15.864-12.389c7.639,0,14.066,5.301,15.854,12.389H411.284z"/>
<g>
	<g>
		<path fill="#EA272B" d="M584.204,70.072c-13.146,0-23.836-10.686-23.836-23.824c0-13.142,10.689-23.825,23.836-23.825
			c13.131,0,23.812,10.684,23.812,23.825C608.017,59.387,597.335,70.072,584.204,70.072z M584.204,30.128
			c-8.902,0-16.129,7.231-16.129,16.132c0,8.875,7.227,16.115,16.129,16.115c8.889,0,16.117-7.24,16.117-16.115
			C600.321,37.359,593.093,30.128,584.204,30.128z"/>
	</g>
	<g>
		<path fill="#EA272B" d="M554.688,62.385c-4.783-1.117-6.256-4.016-6.197-13.611V35.359h-3.438h-4.27v13.393
			c0,11.775,2.012,19.986,13.904,21.32C554.743,67.652,554.585,64.252,554.688,62.385z"/>
		<path fill="#EA272B" d="M548.978,22.067c0,2.262-1.828,4.098-4.096,4.098c-2.264,0-4.098-1.836-4.098-4.098
			c0-2.264,1.834-4.096,4.098-4.096C547.149,17.972,548.978,19.804,548.978,22.067z"/>
	</g>
	<path fill="#EA272B" d="M530.556,50.494c0,4.836-3.922,8.764-8.768,8.764c-4.847,0-8.774-3.928-8.774-8.764
		c0-4.844,3.928-8.771,8.774-8.771C526.634,41.723,530.556,45.65,530.556,50.494z"/>
</g>
<path fill="#EA272B" d="M320.155,45.52c-6.091-4.422-17.897-3.084-24.087-4.826c-2.942-0.93-4.393-2.537-4.258-4.484
	c0.282-4.232,5.233-6.926,12.54-6.602c7.09,0.318,11.983,2.783,12.619,9.037c5.097,0,6.273,0.139,8.311-0.082
	c0-9.135-7.15-16.846-21.529-16.846c-12.199,0-19.998,5.889-19.998,13.855c0,3.619,0.945,7.102,4.32,9.635
	c4.563,3.07,7.933,3.213,21.558,4.527c3.944,0.998,7.476,2.393,7.339,6.268c-1.243,4.594-6.474,5.922-13.788,5.979
	c-6.479,0.053-11.929-4.012-12.615-10.504c-7.804-0.111-2.274-0.09-8.636-0.057c0,8.91,8.824,18.396,21.255,18.646
	c12.199,0.24,22.095-6.451,22.095-14.418C325.28,52.023,323.538,48.057,320.155,45.52z"/>
<g>
	<path fill="#EA272B" d="M25.322,16.932c0,4.836-3.922,8.764-8.768,8.764c-4.848,0-8.773-3.928-8.773-8.764
		c0-4.844,3.926-8.771,8.773-8.771C21.4,8.16,25.322,12.088,25.322,16.932z"/>
	<path fill="#EA272B" d="M69.842,16.564c0,9.145-7.418,16.557-16.566,16.557c-9.143,0-16.557-7.412-16.557-16.557
		C36.719,7.412,44.133,0,53.275,0C62.424,0,69.842,7.412,69.842,16.564z"/>
	<path fill="#EA272B" d="M69.801,53.502c0,9.152-7.416,16.57-16.563,16.57c-9.145,0-16.565-7.418-16.565-16.57
		c0-9.139,7.421-16.559,16.565-16.559C62.385,36.943,69.801,44.363,69.801,53.502z"/>
	<path fill="#EA272B" d="M33.12,53.502c0,9.152-7.417,16.57-16.563,16.57C7.411,70.072,0,62.654,0,53.502
		c0-9.139,7.411-16.559,16.557-16.559C25.703,36.943,33.12,44.363,33.12,53.502z"/>
</g>
</svg>
