<?xml version="1.0" encoding="utf-8"?>
<!-- Generator: Adobe Illustrator 15.1.0, SVG Export Plug-In . SVG Version: 6.00 Build 0)  -->
<!DOCTYPE svg PUBLIC "-//W3C//DTD SVG 1.1//EN" "http://www.w3.org/Graphics/SVG/1.1/DTD/svg11.dtd">
<svg version="1.1" id="Layer_1" xmlns="http://www.w3.org/2000/svg" xmlns:xlink="http://www.w3.org/1999/xlink" x="0px" y="0px"
	 width="160px" height="160px" viewBox="0 0 160 160" enable-background="new 0 0 160 160" xml:space="preserve">
<rect x="-0.164" y="-0.777" fill="#EA272B" width="160" height="161"/>
<g>
	<path fill="#FFFFFF" d="M67.138,56.242c0,6.359-5.157,11.521-11.527,11.521c-6.372,0-11.535-5.162-11.535-11.521
		c0-6.367,5.163-11.532,11.535-11.532C61.981,44.709,67.138,49.875,67.138,56.242z"/>
	<path fill="#FFFFFF" d="M125.668,55.758c0,12.021-9.752,21.768-21.779,21.768c-12.02,0-21.768-9.746-21.768-21.768
		c0-12.033,9.748-21.776,21.768-21.776C115.916,33.982,125.668,43.726,125.668,55.758z"/>
	<path fill="#FFFFFF" d="M125.614,104.32c0,12.032-9.75,21.786-21.776,21.786c-12.022,0-21.777-9.754-21.777-21.786
		c0-12.015,9.755-21.769,21.777-21.769C115.864,82.551,125.614,92.305,125.614,104.32z"/>
	<path fill="#FFFFFF" d="M77.39,104.32c0,12.032-9.751,21.786-21.777,21.786c-12.022,0-21.766-9.754-21.766-21.786
		c0-12.015,9.744-21.769,21.766-21.769C67.639,82.551,77.39,92.305,77.39,104.32z"/>
</g>
</svg>
